<svg width="80" height="23" viewBox="0 0 80 23" fill="none" xmlns="http://www.w3.org/2000/svg">
  <title>Store</title>
  <path d="M9.72266 16.4043C9.72266 15.5352 9.49805 14.8809 9.04883 14.4414C8.60938 13.9922 7.80371 13.5283 6.63184 13.0498C4.49316 12.2393 2.95508 11.292 2.01758 10.208C1.08008 9.11426 0.611328 7.8252 0.611328 6.34082C0.611328 4.54395 1.24609 3.10352 2.51562 2.01953C3.79492 0.925781 5.41602 0.378906 7.37891 0.378906C8.6875 0.378906 9.85449 0.657227 10.8799 1.21387C11.9053 1.76074 12.6914 2.53711 13.2383 3.54297C13.7949 4.54883 14.0732 5.69141 14.0732 6.9707H9.78125C9.78125 5.97461 9.56641 5.21777 9.13672 4.7002C8.7168 4.17285 8.10645 3.90918 7.30566 3.90918C6.55371 3.90918 5.96777 4.13379 5.54785 4.58301C5.12793 5.02246 4.91797 5.61816 4.91797 6.37012C4.91797 6.95605 5.15234 7.48828 5.62109 7.9668C6.08984 8.43555 6.91992 8.92383 8.11133 9.43164C10.1914 10.1836 11.7002 11.1064 12.6377 12.2002C13.585 13.2939 14.0586 14.6855 14.0586 16.375C14.0586 18.2305 13.4678 19.6807 12.2861 20.7256C11.1045 21.7705 9.49805 22.293 7.4668 22.293C6.08984 22.293 4.83496 22.0098 3.70215 21.4434C2.56934 20.877 1.68066 20.0664 1.03613 19.0117C0.401367 17.957 0.0839844 16.7119 0.0839844 15.2764H4.40527C4.40527 16.5068 4.64453 17.4004 5.12305 17.957C5.60156 18.5137 6.38281 18.792 7.4668 18.792C8.9707 18.792 9.72266 17.9961 9.72266 16.4043Z" fill="#8F948E"/>
  <path d="M30.7285 4.26074H25.4551V22H21.1338V4.26074H15.9482V0.671875H30.7285V4.26074Z" fill="#8F948E"/>
  <path d="M47.8086 13.2549C47.8086 16.1162 47.1299 18.3379 45.7725 19.9199C44.4248 21.502 42.5498 22.293 40.1475 22.293C37.7549 22.293 35.875 21.5117 34.5078 19.9492C33.1406 18.377 32.4473 16.1797 32.4277 13.3574V9.70996C32.4277 6.78027 33.1064 4.49512 34.4639 2.85449C35.8213 1.2041 37.7061 0.378906 40.1182 0.378906C42.4912 0.378906 44.3613 1.18945 45.7285 2.81055C47.0957 4.42188 47.7891 6.6875 47.8086 9.60742V13.2549ZM43.4873 9.68066C43.4873 7.75684 43.2139 6.32617 42.667 5.38867C42.1201 4.45117 41.2705 3.98242 40.1182 3.98242C38.9756 3.98242 38.1309 4.43652 37.584 5.34473C37.0371 6.24316 36.7539 7.61523 36.7344 9.46094V13.2549C36.7344 15.1201 37.0127 16.4971 37.5693 17.3857C38.126 18.2646 38.9854 18.7041 40.1475 18.7041C41.2705 18.7041 42.1055 18.2744 42.6523 17.415C43.1992 16.5459 43.4775 15.2031 43.4873 13.3867V9.68066Z" fill="#8F948E"/>
  <path d="M57.3594 14.207H55.2207V22H50.9141V0.671875H57.7842C59.9424 0.671875 61.6074 1.2334 62.7793 2.35645C63.9609 3.46973 64.5518 5.05664 64.5518 7.11719C64.5518 9.94922 63.5215 11.9316 61.4609 13.0645L65.1963 21.7949V22H60.5674L57.3594 14.207ZM55.2207 10.6182H57.667C58.5264 10.6182 59.1709 10.335 59.6006 9.76855C60.0303 9.19238 60.2451 8.42578 60.2451 7.46875C60.2451 5.33008 59.4102 4.26074 57.7402 4.26074H55.2207V10.6182Z" fill="#8F948E"/>
  <path d="M78.5264 12.7715H71.8174V18.4258H79.7568V22H67.5107V0.671875H79.7275V4.26074H71.8174V9.2998H78.5264V12.7715Z" fill="#8F948E"/>
</svg>
